<?xml version="1.0" encoding="UTF-8" standalone="no"?>
<svg
   xmlns:dc="http://purl.org/dc/elements/1.1/"
   xmlns:cc="http://creativecommons.org/ns#"
   xmlns:rdf="http://www.w3.org/1999/02/22-rdf-syntax-ns#"
   xmlns:svg="http://www.w3.org/2000/svg"
   xmlns="http://www.w3.org/2000/svg"
   id="svg307"
   version="1.1"
   viewBox="0 0 134.57042 61.716903"
   height="61.716904mm"
   width="134.57042mm">
  <defs
     id="defs301">
    <clipPath
       id="clipPath100"
       clipPathUnits="userSpaceOnUse">
      <path
         id="path98"
         d="m 320.4,190.677 583.2,0 0,410.647 -583.2,0 z" />
    </clipPath>
    <clipPath
       id="clipPath100-6"
       clipPathUnits="userSpaceOnUse">
      <path
         id="path98-6"
         d="m 320.4,190.677 583.2,0 0,410.647 -583.2,0 z" />
    </clipPath>
    <clipPath
       id="clipPath100-6-4"
       clipPathUnits="userSpaceOnUse">
      <path
         id="path98-6-2"
         d="m 320.4,190.677 583.2,0 0,410.647 -583.2,0 z" />
    </clipPath>
    <clipPath
       id="clipPath100-6-0"
       clipPathUnits="userSpaceOnUse">
      <path
         id="path98-6-3"
         d="m 320.4,190.677 583.2,0 0,410.647 -583.2,0 z" />
    </clipPath>
    <clipPath
       id="clipPath100-0"
       clipPathUnits="userSpaceOnUse">
      <path
         id="path98-1"
         d="m 320.4,190.677 583.2,0 0,410.647 -583.2,0 z" />
    </clipPath>
    <clipPath
       id="clipPath100-0-3"
       clipPathUnits="userSpaceOnUse">
      <path
         id="path98-1-5"
         d="m 320.4,190.677 583.2,0 0,410.647 -583.2,0 z" />
    </clipPath>
    <clipPath
       id="clipPath100-0-1"
       clipPathUnits="userSpaceOnUse">
      <path
         id="path98-1-8"
         d="m 320.4,190.677 583.2,0 0,410.647 -583.2,0 z" />
    </clipPath>
    <clipPath
       id="clipPath100-0-3-0"
       clipPathUnits="userSpaceOnUse">
      <path
         id="path98-1-5-8"
         d="m 320.4,190.677 583.2,0 0,410.647 -583.2,0 z" />
    </clipPath>
  </defs>
  <metadata
     id="metadata304">
    <rdf:RDF>
      <cc:Work
         rdf:about="">
        <dc:format>image/svg+xml</dc:format>
        <dc:type
           rdf:resource="http://purl.org/dc/dcmitype/StillImage" />
        <dc:title></dc:title>
      </cc:Work>
    </rdf:RDF>
  </metadata>
  <g
     transform="translate(-16.970745,-11.067924)"
     id="layer2">
    <path
       style="fill:#383536;stroke-width:0.04654988"
       d="m 62.011599,19.931562 c 0,1.39649 -1.0241,2.00164 -1.9551,2.00164 -0.88444,0 -1.90854,-0.60515 -1.90854,-1.95509 0,-0.6517 0.3724,-1.72235 1.72235,-1.90855 -1.0241,-0.88445 -2.46715,-0.97754 -2.93265,-0.97754 -2.09474,0 -3.67744,1.16374 -4.32913,9.728919 l -0.88445,11.59092 c -0.3724,5.16704 -2.0482,18.71305 -2.65335,21.13364 -1.02409,4.18949 -3.25849,8.23933 -7.68073,8.23933 -2.79299,0 -5.12048,-1.62924 -5.12048,-3.86364 0,-1.39649 1.0241,-2.00164 1.95509,-2.00164 0.88445,0 1.90855,0.60515 1.90855,1.95509 0,0.6517 -0.3724,1.72235 -1.72235,1.90855 0.97755,0.83789 2.37405,0.97754 2.97919,0.97754 2.65335,0 4.32914,-2.09474 4.93429,-9.72892 l 0.88445,-11.59092 c 0.41895,-5.63254 2.09474,-18.7596 2.65334,-21.31984 0.79135,-3.537789 2.6068,-8.053129 7.02903,-8.053129 2.793,0 5.12049,1.62924 5.12049,3.86364 z"
       id="path3270-1" />
    <text
       id="text1174"
       y="58.610416"
       x="61.383331"
       style="font-size:2.53999996px;line-height:1.25;font-family:sans-serif;letter-spacing:0px;word-spacing:0px;fill:#000000;stroke-width:0.26458332"
       xml:space="preserve"><tspan
         y="58.610416"
         x="61.383331"
         id="tspan1172" /></text>
  </g>
  <g
     transform="translate(-16.970745,-11.067924)"
     id="layer1">
    <g
       id="g94"
       transform="matrix(0.35277777,0,0,-0.35277777,-91.059394,218.2774)">
      <g
         clip-path="url(#clipPath100-0)"
         id="g96">
        <path
           id="path114"
           style="fill:#ed1c24"
           d="m 351.9784,475.7522 0,25.9 -8.487,-16.851 -5.867,0 -8.549,16.851 0,-25.9 -8.675,0 0,44.435 8.55,0 11.608,-24.026 11.545,24.026 8.55,0 0,-44.435 z" />
        <path
           id="path116"
           style="fill:#ed1c24"
           d="m 445.9569,475.7522 c -6.678,0 -9.487,4.681 -9.487,9.299 l 0,35.136 8.113,0 0,-34.636 c 0,-1.935 0.812,-2.934 2.872,-2.934 l 3.119,0 0,-6.865 z" />
        <path
           id="path118"
           style="fill:#393536"
           d="m 482.4002,475.3787 c -6.739,0 -11.857,1.435 -16.226,5.866 l 5.617,5.617 c 2.809,-2.809 6.615,-3.745 10.734,-3.745 5.118,0 7.863,1.934 7.863,5.492 0,1.56 -0.437,2.87 -1.372,3.744 -0.874,0.812 -1.873,1.249 -3.933,1.56 l -5.366,0.75 c -3.808,0.561 -6.616,1.746 -8.612,3.681 -2.122,2.122 -3.184,4.994 -3.184,8.737 0,7.926 5.866,13.481 15.478,13.481 6.115,0 10.547,-1.499 14.352,-5.18 l -5.491,-5.43 c -2.808,2.685 -6.178,3.059 -9.111,3.059 -4.619,0 -6.865,-2.559 -6.865,-5.617 0,-1.124 0.374,-2.309 1.311,-3.183 0.873,-0.811 2.308,-1.499 4.119,-1.747 l 5.242,-0.749 c 4.057,-0.562 6.614,-1.686 8.487,-3.433 2.372,-2.247 3.433,-5.492 3.433,-9.423 0,-8.612 -7.177,-13.48 -16.476,-13.48" />
        <path
           id="path120"
           style="fill:#393536"
           d="m 531.38,475.3787 c -6.739,0 -11.857,1.435 -16.226,5.866 l 5.617,5.617 c 2.808,-2.809 6.615,-3.745 10.734,-3.745 5.118,0 7.863,1.934 7.863,5.492 0,1.56 -0.437,2.87 -1.372,3.744 -0.874,0.812 -1.873,1.249 -3.933,1.56 l -5.366,0.75 c -3.808,0.561 -6.616,1.746 -8.613,3.681 -2.121,2.122 -3.183,4.994 -3.183,8.737 0,7.926 5.867,13.481 15.478,13.481 6.115,0 10.547,-1.499 14.353,-5.18 l -5.492,-5.43 c -2.808,2.685 -6.178,3.059 -9.111,3.059 -4.619,0 -6.865,-2.559 -6.865,-5.617 0,-1.124 0.374,-2.309 1.311,-3.183 0.874,-0.811 2.308,-1.499 4.118,-1.747 l 5.243,-0.749 c 4.056,-0.562 6.615,-1.686 8.488,-3.433 2.371,-2.247 3.432,-5.492 3.432,-9.423 0,-8.612 -7.177,-13.48 -16.476,-13.48" />
        <path
           id="path122"
           style="fill:#393536"
           d="m 568.51,475.752 8.674,0 0,44.435 -8.674,0 z" />
        <path
           id="path124"
           style="fill:#ed1c24"
           d="m 398.2853,505.0527 c -4.876,0 -8.842,-3.967 -8.842,-8.842 0,-4.877 3.966,-8.843 8.842,-8.843 4.876,0 8.842,3.966 8.842,8.843 0,4.875 -3.966,8.842 -8.842,8.842 m 0,-25.713 c -9.303,0 -16.871,7.568 -16.871,16.871 0,9.302 7.568,16.87 16.871,16.87 9.303,0 16.87,-7.568 16.87,-16.87 0,-9.303 -7.567,-16.871 -16.87,-16.871" />
        <g
           transform="matrix(0.13195241,0,0,0.13195241,345.89425,480.69848)"
           id="g3268" />
      </g>
    </g>
  </g>
  <g
     transform="translate(-16.970745,-11.067924)"
     id="layer4">
    <g
       id="text1179">
      <path
         id="path4167"
         d="m 60.705818,64.97361 0,-7.032978 -1.106312,0 0,7.032978 1.106312,0 z" />
      <path
         id="path4169"
         d="m 64.937674,64.97361 0,-3.753556 c 0,-0.602544 -0.0889,-0.889 -0.296334,-1.126066 -0.237066,-0.276578 -0.523522,-0.404989 -0.948266,-0.404989 -0.187678,0 -0.375356,0.04939 -0.523523,0.138289 -0.128411,0.06914 -0.256822,0.207433 -0.345722,0.325966 l 0,-0.385233 -1.007533,0 0,5.205589 1.047044,0 0,-3.743678 c 0,-0.404989 0.227189,-0.602544 0.513645,-0.602544 0.286455,0 0.513644,0.197555 0.513644,0.602544 l 0,3.743678 1.047045,0 z" />
      <path
         id="path4171"
         d="m 67.94021,64.97361 0,-0.938389 c -0.493889,0 -0.740834,-0.217311 -0.740834,-0.701322 l 0,-2.765778 0.721078,0 0,-0.8001 -0.721078,0 0,-1.3335 -1.047044,0 0,1.3335 -0.5334,0 0,0.8001 0.5334,0 0,2.825044 c 0,0.612423 0.197555,1.007534 0.523522,1.264356 0.3556,0.276578 0.770467,0.316089 1.264356,0.316089 z" />
      <path
         id="path4173"
         d="m 71.678331,62.672088 c -0.0099,-0.9779 0.02963,-2.034823 -0.474133,-2.568223 -0.306211,-0.325966 -0.681567,-0.414866 -1.116189,-0.414866 -0.424745,0 -0.8001,0.09878 -1.116189,0.414866 -0.4445,0.4445 -0.484011,1.313745 -0.484011,2.262012 0,0.948266 0.03951,1.817511 0.484011,2.262011 0.316089,0.316089 0.642056,0.424744 1.126067,0.424744 0.454377,0 0.859366,-0.118533 1.126066,-0.414867 0.296334,-0.325966 0.414867,-0.760588 0.434623,-1.195211 l -1.037167,0 c 0,0.158045 -0.04939,0.365478 -0.128411,0.464256 -0.09878,0.128411 -0.217311,0.207433 -0.395111,0.207433 -0.187678,0 -0.325967,-0.0889 -0.404989,-0.207433 -0.128411,-0.187678 -0.158045,-0.642056 -0.158045,-1.234722 l 2.143478,0 z m -1.047044,-0.770467 -1.096434,0 c 0,-0.5334 0.03951,-0.928511 0.158045,-1.076678 0.0889,-0.118533 0.207433,-0.207433 0.395111,-0.207433 0.187678,0 0.306211,0.0889 0.395111,0.207433 0.118533,0.148167 0.148167,0.543278 0.148167,1.076678 z" />
      <path
         id="path4175"
         d="m 75.54579,65.072388 0,-5.304367 -1.007534,0 0,0.335844 c -0.07902,-0.108655 -0.197555,-0.217311 -0.306211,-0.276577 -0.158044,-0.0889 -0.345722,-0.138289 -0.5334,-0.138289 -0.4445,0 -0.661811,0.108655 -0.898878,0.385233 -0.325966,0.385233 -0.414866,0.987778 -0.414866,2.103967 0,1.116189 0.0889,1.708855 0.414866,2.094089 0.237067,0.276577 0.464256,0.385233 0.898878,0.385233 0.207434,0 0.365478,-0.02963 0.503767,-0.118533 0.09878,-0.05927 0.207433,-0.167923 0.296333,-0.286456 l 0,0.889 c 0,0.325967 -0.03951,0.513645 -0.148166,0.642056 -0.0889,0.09878 -0.217312,0.167922 -0.375356,0.167922 -0.158044,0 -0.286456,-0.05927 -0.375356,-0.158044 -0.108655,-0.128412 -0.148166,-0.296334 -0.148166,-0.493889 l -1.037167,0 c 0,0.434622 0.118533,0.829733 0.434622,1.145822 0.286456,0.276578 0.691445,0.404989 1.126067,0.404989 0.424744,0 0.859367,-0.158045 1.126067,-0.424745 0.286455,-0.286455 0.4445,-0.681566 0.4445,-1.353255 z m -1.047045,-1.945923 c 0,0.217312 -0.04939,0.365478 -0.148166,0.474134 -0.0889,0.09878 -0.227189,0.148166 -0.375356,0.148166 -0.187678,0 -0.286456,-0.07902 -0.385233,-0.207433 -0.158045,-0.207433 -0.158045,-0.7112 -0.158045,-1.353255 0,-0.642056 0,-1.145823 0.158045,-1.353256 0.09878,-0.128411 0.197555,-0.217311 0.385233,-0.217311 0.148167,0 0.276578,0.04939 0.365478,0.148166 0.09878,0.108656 0.158044,0.2667 0.158044,0.484012 l 0,1.876777 z" />
      <path
         id="path4177"
         d="m 78.846975,60.70641 0,-1.017411 c -0.306211,0 -0.582789,0.07902 -0.809978,0.217311 -0.1778,0.108655 -0.345722,0.256822 -0.454378,0.414866 l 0,-0.553155 -1.007533,0 0,5.205589 1.047044,0 0,-3.368322 c 0,-0.563034 0.375356,-0.898878 0.869245,-0.898878 l 0.3556,0 z" />
      <path
         id="path4179"
         d="m 82.39325,64.97361 0,-3.674534 c 0,-0.563033 -0.1778,-0.948266 -0.454378,-1.224844 -0.2667,-0.276578 -0.671689,-0.385233 -1.106311,-0.385233 -0.424745,0 -0.849489,0.1778 -1.096433,0.424744 -0.325967,0.325967 -0.4445,0.7112 -0.4445,1.126067 l 1.047044,0 c 0,-0.217311 0.04939,-0.365478 0.158044,-0.484011 0.07902,-0.0889 0.187678,-0.148167 0.345723,-0.148167 0.325966,0 0.503766,0.217311 0.503766,0.602544 l 0,0.721078 -0.464255,0 c -0.602545,0 -0.938389,0.128411 -1.195211,0.3556 -0.316089,0.276578 -0.484011,0.691445 -0.484011,1.165578 0,0.523522 0.108655,0.918633 0.316088,1.165578 0.2667,0.306211 0.543278,0.434622 0.9779,0.434622 0.2667,0 0.434623,-0.06914 0.592667,-0.1778 0.118533,-0.07902 0.227189,-0.217311 0.316089,-0.345722 l 0,0.4445 0.987778,0 z m -1.047045,-1.531056 c 0,0.424745 -0.237066,0.691445 -0.553155,0.691445 -0.3556,0 -0.543278,-0.256822 -0.543278,-0.721078 0,-0.207433 0.07902,-0.464256 0.207433,-0.582789 0.148167,-0.138289 0.316089,-0.158044 0.543278,-0.158044 l 0.345722,0 0,0.770466 z" />
      <path
         id="path4181"
         d="m 85.113962,64.97361 0,-0.938389 c -0.484011,0 -0.7112,-0.237067 -0.7112,-0.701322 l 0,-5.393267 -1.047045,0 0,5.452533 c 0,0.6223 0.197556,1.017412 0.523522,1.264356 0.345723,0.2667 0.750712,0.316089 1.234723,0.316089 z" />
      <path
         id="path4183"
         d="m 91.453797,64.97361 -1.047045,-3.121378 c 0.642056,-0.345722 0.819856,-0.968022 0.819856,-1.837267 0,-1.452033 -0.513645,-2.074333 -1.797756,-2.074333 l -1.778,0 0,7.032978 1.106311,0 0,-2.884311 0.6223,0 0.918634,2.884311 1.1557,0 z m -1.3335,-4.958645 c 0,0.582789 -0.0889,1.076678 -0.681567,1.076678 l -0.681567,0 0,-2.153355 0.681567,0 c 0.592667,0 0.681567,0.493888 0.681567,1.076677 z" />
      <path
         id="path4185"
         d="m 95.176638,62.672088 c -0.0099,-0.9779 0.02963,-2.034823 -0.474133,-2.568223 -0.306211,-0.325966 -0.681567,-0.414866 -1.116189,-0.414866 -0.424744,0 -0.8001,0.09878 -1.116189,0.414866 -0.4445,0.4445 -0.484011,1.313745 -0.484011,2.262012 0,0.948266 0.03951,1.817511 0.484011,2.262011 0.316089,0.316089 0.642056,0.424744 1.126067,0.424744 0.454378,0 0.859367,-0.118533 1.126067,-0.414867 0.296333,-0.325966 0.414866,-0.760588 0.434622,-1.195211 l -1.037167,0 c 0,0.158045 -0.04939,0.365478 -0.128411,0.464256 -0.09878,0.128411 -0.217311,0.207433 -0.395111,0.207433 -0.187678,0 -0.325967,-0.0889 -0.404989,-0.207433 -0.128411,-0.187678 -0.158044,-0.642056 -0.158044,-1.234722 l 2.143477,0 z m -1.047044,-0.770467 -1.096433,0 c 0,-0.5334 0.03951,-0.928511 0.158044,-1.076678 0.0889,-0.118533 0.207433,-0.207433 0.395111,-0.207433 0.187678,0 0.306211,0.0889 0.395111,0.207433 0.118534,0.148167 0.148167,0.543278 0.148167,1.076678 z" />
      <path
         id="path4187"
         d="m 98.016811,60.568121 0,-0.8001 -0.721078,0 0,-0.246945 c 0,-0.474133 0.237067,-0.701322 0.721078,-0.701322 l 0,-0.938389 c -0.484011,0 -0.898878,0.05927 -1.2446,0.325967 -0.325967,0.256822 -0.523522,0.642056 -0.523522,1.254478 l 0,0.306211 -0.5334,0 0,0.8001 0.5334,0 0,4.405489 1.047044,0 0,-4.405489 0.721078,0 z" />
      <path
         id="path4189"
         d="m 101.67823,62.672088 c -0.01,-0.9779 0.0296,-2.034823 -0.47414,-2.568223 -0.30621,-0.325966 -0.68156,-0.414866 -1.11619,-0.414866 -0.424741,0 -0.800097,0.09878 -1.116186,0.414866 -0.4445,0.4445 -0.484011,1.313745 -0.484011,2.262012 0,0.948266 0.03951,1.817511 0.484011,2.262011 0.316089,0.316089 0.642056,0.424744 1.126066,0.424744 0.45438,0 0.85937,-0.118533 1.12607,-0.414867 0.29633,-0.325966 0.41486,-0.760588 0.43462,-1.195211 l -1.03717,0 c 0,0.158045 -0.0494,0.365478 -0.12841,0.464256 -0.0988,0.128411 -0.21731,0.207433 -0.39511,0.207433 -0.187677,0 -0.325966,-0.0889 -0.404988,-0.207433 -0.128411,-0.187678 -0.158045,-0.642056 -0.158045,-1.234722 l 2.143483,0 z m -1.04705,-0.770467 -1.096433,0 c 0,-0.5334 0.03951,-0.928511 0.158045,-1.076678 0.0889,-0.118533 0.207433,-0.207433 0.395108,-0.207433 0.18768,0 0.30621,0.0889 0.39511,0.207433 0.11854,0.148167 0.14817,0.543278 0.14817,1.076678 z" />
      <path
         id="path4191"
         d="m 104.81473,60.70641 0,-1.017411 c -0.30621,0 -0.58279,0.07902 -0.80998,0.217311 -0.1778,0.108655 -0.34572,0.256822 -0.45438,0.414866 l 0,-0.553155 -1.00753,0 0,5.205589 1.04704,0 0,-3.368322 c 0,-0.563034 0.37536,-0.898878 0.86925,-0.898878 l 0.3556,0 z" />
      <path
         id="path4193"
         d="m 108.43061,62.672088 c -0.01,-0.9779 0.0296,-2.034823 -0.47413,-2.568223 -0.30621,-0.325966 -0.68157,-0.414866 -1.11619,-0.414866 -0.42475,0 -0.8001,0.09878 -1.11619,0.414866 -0.4445,0.4445 -0.48401,1.313745 -0.48401,2.262012 0,0.948266 0.0395,1.817511 0.48401,2.262011 0.31609,0.316089 0.64205,0.424744 1.12606,0.424744 0.45438,0 0.85937,-0.118533 1.12607,-0.414867 0.29634,-0.325966 0.41487,-0.760588 0.43462,-1.195211 l -1.03716,0 c 0,0.158045 -0.0494,0.365478 -0.12841,0.464256 -0.0988,0.128411 -0.21732,0.207433 -0.39512,0.207433 -0.18767,0 -0.32596,-0.0889 -0.40498,-0.207433 -0.12842,-0.187678 -0.15805,-0.642056 -0.15805,-1.234722 l 2.14348,0 z m -1.04705,-0.770467 -1.09643,0 c 0,-0.5334 0.0395,-0.928511 0.15805,-1.076678 0.0889,-0.118533 0.20743,-0.207433 0.39511,-0.207433 0.18767,0 0.30621,0.0889 0.39511,0.207433 0.11853,0.148167 0.14816,0.543278 0.14816,1.076678 z" />
      <path
         id="path4195"
         d="m 112.4166,64.97361 0,-3.753556 c 0,-0.602544 -0.0889,-0.889 -0.29633,-1.126066 -0.23707,-0.276578 -0.52352,-0.404989 -0.94827,-0.404989 -0.18767,0 -0.37535,0.04939 -0.52352,0.138289 -0.12841,0.06914 -0.25682,0.207433 -0.34572,0.325966 l 0,-0.385233 -1.00753,0 0,5.205589 1.04704,0 0,-3.743678 c 0,-0.404989 0.22719,-0.602544 0.51365,-0.602544 0.28645,0 0.51364,0.197555 0.51364,0.602544 l 0,3.743678 1.04704,0 z" />
      <path
         id="path4197"
         d="m 116.42667,63.442554 -1.03716,0 c -0.01,0.1778 -0.0296,0.3556 -0.13829,0.493889 -0.079,0.108656 -0.20744,0.1778 -0.38524,0.1778 -0.15804,0 -0.31609,-0.06914 -0.40499,-0.207433 -0.13828,-0.246945 -0.14816,-0.770467 -0.14816,-1.540933 0,-0.770467 0.01,-1.293989 0.14816,-1.531056 0.0889,-0.138289 0.24695,-0.217311 0.40499,-0.217311 0.1778,0 0.30621,0.06914 0.38524,0.187678 0.10865,0.138288 0.12841,0.325966 0.13829,0.484011 l 1.03716,0 c -0.0296,-0.4445 -0.13829,-0.918634 -0.46425,-1.234723 -0.30621,-0.286455 -0.65194,-0.365477 -1.09644,-0.365477 -0.49389,0 -0.92851,0.118533 -1.23472,0.543277 -0.32597,0.454378 -0.36548,1.254478 -0.36548,2.133601 0,0.889 0.0395,1.6891 0.36548,2.1336 0.30621,0.424744 0.74083,0.553155 1.23472,0.553155 0.46426,0 0.83961,-0.118533 1.10631,-0.385233 0.28646,-0.286456 0.42475,-0.730956 0.45438,-1.224845 z" />
      <path
         id="path4199"
         d="m 120.25693,62.672088 c -0.01,-0.9779 0.0296,-2.034823 -0.47413,-2.568223 -0.30621,-0.325966 -0.68157,-0.414866 -1.11619,-0.414866 -0.42474,0 -0.8001,0.09878 -1.11619,0.414866 -0.4445,0.4445 -0.48401,1.313745 -0.48401,2.262012 0,0.948266 0.0395,1.817511 0.48401,2.262011 0.31609,0.316089 0.64206,0.424744 1.12607,0.424744 0.45438,0 0.85937,-0.118533 1.12607,-0.414867 0.29633,-0.325966 0.41486,-0.760588 0.43462,-1.195211 l -1.03717,0 c 0,0.158045 -0.0494,0.365478 -0.12841,0.464256 -0.0988,0.128411 -0.21731,0.207433 -0.39511,0.207433 -0.18768,0 -0.32597,-0.0889 -0.40499,-0.207433 -0.12841,-0.187678 -0.15804,-0.642056 -0.15804,-1.234722 l 2.14347,0 z m -1.04704,-0.770467 -1.09643,0 c 0,-0.5334 0.0395,-0.928511 0.15804,-1.076678 0.0889,-0.118533 0.20743,-0.207433 0.39511,-0.207433 0.18768,0 0.30621,0.0889 0.39511,0.207433 0.11854,0.148167 0.14817,0.543278 0.14817,1.076678 z" />
      <path
         id="path4201"
         d="m 126.55124,60.074232 c 0,-1.471789 -0.5334,-2.1336 -1.80763,-2.1336 l -1.76813,0 0,7.032978 1.10631,0 0,-2.746022 0.66182,0 c 1.3335,0 1.80763,-0.730956 1.80763,-2.153356 z m -1.10631,0.0099 c 0,0.6223 -0.0889,1.145822 -0.68157,1.145822 l -0.68157,0 0,-2.291644 0.68157,0 c 0.59267,0 0.68157,0.523522 0.68157,1.145822 z" />
      <path
         id="path4203"
         d="m 129.70209,60.70641 0,-1.017411 c -0.30621,0 -0.58278,0.07902 -0.80997,0.217311 -0.1778,0.108655 -0.34573,0.256822 -0.45438,0.414866 l 0,-0.553155 -1.00753,0 0,5.205589 1.04704,0 0,-3.368322 c 0,-0.563034 0.37536,-0.898878 0.86924,-0.898878 l 0.3556,0 z" />
      <path
         id="path4205"
         d="m 133.32786,62.365877 c 0,-0.879123 -0.0395,-1.679223 -0.36548,-2.133601 -0.30621,-0.424744 -0.73095,-0.543277 -1.23472,-0.543277 -0.50376,0 -0.92851,0.118533 -1.23472,0.543277 -0.32597,0.454378 -0.36548,1.254478 -0.36548,2.133601 0,0.879122 0.0395,1.679222 0.36548,2.1336 0.30621,0.424744 0.73096,0.553155 1.23472,0.553155 0.50377,0 0.92851,-0.128411 1.23472,-0.553155 0.32597,-0.454378 0.36548,-1.254478 0.36548,-2.1336 z m -1.04704,0 c 0,0.770466 -0.01,1.303866 -0.14817,1.540933 -0.0889,0.138289 -0.24694,0.207433 -0.40499,0.207433 -0.15804,0 -0.31609,-0.06914 -0.40499,-0.207433 -0.13829,-0.237067 -0.14816,-0.770467 -0.14816,-1.540933 0,-0.770467 0.01,-1.293989 0.14816,-1.531056 0.0889,-0.138289 0.24695,-0.217311 0.40499,-0.217311 0.15805,0 0.31609,0.07902 0.40499,0.217311 0.13829,0.237067 0.14817,0.760589 0.14817,1.531056 z" />
      <path
         id="path4207"
         d="m 135.24893,65.220554 0,-5.314244 -1.04704,0 0,5.254978 c 0,0.523522 -0.23707,0.701322 -0.7112,0.701322 l 0,0.938389 c 0.48401,0 0.87912,-0.05927 1.22484,-0.325967 0.32597,-0.246944 0.5334,-0.632178 0.5334,-1.254478 z m 0.0494,-6.114344 0,-1.1557 -1.1557,0 0,1.1557 1.1557,0 z" />
      <path
         id="path4209"
         d="m 139.31796,62.672088 c -0.01,-0.9779 0.0296,-2.034823 -0.47413,-2.568223 -0.30621,-0.325966 -0.68157,-0.414866 -1.11619,-0.414866 -0.42475,0 -0.8001,0.09878 -1.11619,0.414866 -0.4445,0.4445 -0.48401,1.313745 -0.48401,2.262012 0,0.948266 0.0395,1.817511 0.48401,2.262011 0.31609,0.316089 0.64206,0.424744 1.12607,0.424744 0.45437,0 0.85936,-0.118533 1.12606,-0.414867 0.29634,-0.325966 0.41487,-0.760588 0.43463,-1.195211 l -1.03717,0 c 0,0.158045 -0.0494,0.365478 -0.12841,0.464256 -0.0988,0.128411 -0.21731,0.207433 -0.39511,0.207433 -0.18768,0 -0.32597,-0.0889 -0.40499,-0.207433 -0.12841,-0.187678 -0.15805,-0.642056 -0.15805,-1.234722 l 2.14348,0 z m -1.04704,-0.770467 -1.09644,0 c 0,-0.5334 0.0395,-0.928511 0.15805,-1.076678 0.0889,-0.118533 0.20743,-0.207433 0.39511,-0.207433 0.18768,0 0.30621,0.0889 0.39511,0.207433 0.11853,0.148167 0.14817,0.543278 0.14817,1.076678 z" />
      <path
         id="path4211"
         d="m 143.18542,63.442554 -1.03717,0 c -0.01,0.1778 -0.0296,0.3556 -0.13829,0.493889 -0.079,0.108656 -0.20743,0.1778 -0.38523,0.1778 -0.15805,0 -0.31609,-0.06914 -0.40499,-0.207433 -0.13829,-0.246945 -0.14817,-0.770467 -0.14817,-1.540933 0,-0.770467 0.01,-1.293989 0.14817,-1.531056 0.0889,-0.138289 0.24694,-0.217311 0.40499,-0.217311 0.1778,0 0.30621,0.06914 0.38523,0.187678 0.10866,0.138288 0.12841,0.325966 0.13829,0.484011 l 1.03717,0 c -0.0296,-0.4445 -0.13829,-0.918634 -0.46426,-1.234723 -0.30621,-0.286455 -0.65193,-0.365477 -1.09643,-0.365477 -0.49389,0 -0.92851,0.118533 -1.23473,0.543277 -0.32596,0.454378 -0.36547,1.254478 -0.36547,2.133601 0,0.889 0.0395,1.6891 0.36547,2.1336 0.30622,0.424744 0.74084,0.553155 1.23473,0.553155 0.46425,0 0.83961,-0.118533 1.10631,-0.385233 0.28645,-0.286456 0.42474,-0.730956 0.45438,-1.224845 z" />
      <path
         id="path4213"
         d="m 145.97852,64.97361 0,-0.938389 c -0.49389,0 -0.74084,-0.217311 -0.74084,-0.701322 l 0,-2.765778 0.72108,0 0,-0.8001 -0.72108,0 0,-1.3335 -1.04704,0 0,1.3335 -0.5334,0 0,0.8001 0.5334,0 0,2.825044 c 0,0.612423 0.19756,1.007534 0.52352,1.264356 0.3556,0.276578 0.77047,0.316089 1.26436,0.316089 z" />
    </g>
  </g>
</svg>
